<svg width="364" height="168" viewBox="0 0 364 168" fill="none" xmlns="http://www.w3.org/2000/svg">
<g clip-path="url(#clip0_8_81)">
<rect width="364" height="168" fill="#FFF8F2"/>
<g filter="url(#filter0_d_8_81)">
<path d="M225.74 109.92C224.863 108.685 223.767 108.273 222.233 108.273C217.41 108.068 213.464 106.215 210.615 102.305C209.08 100.042 206.23 100.042 204.477 102.511C200.97 107.039 196.366 108.891 190.667 108.068C186.721 107.656 183.214 106.421 181.46 102.923C179.706 99.6301 177.514 99.2185 174.665 101.688C172.034 103.952 169.184 105.804 165.677 106.421C159.978 107.656 156.251 105.186 155.374 99.6301C155.155 98.1896 155.374 96.749 155.374 95.3085C155.813 92.839 153.621 91.3984 151.209 92.2216C150.333 92.4274 149.456 93.0448 148.798 93.6621C147.044 94.8969 145.51 96.3374 143.756 97.5722C137.838 102.1 131.042 103.952 123.589 102.511C109.56 99.6301 98.5995 86.6652 98.3803 72.8771C98.1611 64.4397 102.984 55.3848 110.218 50.4458C119.205 44.0662 131.919 46.1242 138.276 54.7674C142.441 60.118 141.564 67.115 136.303 71.4366C132.138 75.1408 123.37 74.5235 119.643 70.6134C118.109 68.9671 117.89 66.7034 119.205 65.057C120.301 63.4107 122.055 62.7933 124.466 63.6165C124.904 63.8223 125.124 63.8223 125.562 64.0281C127.316 64.4397 128.85 63.8223 129.508 62.3817C130.165 60.9412 129.508 59.2948 127.973 58.4717C125.124 57.2369 122.274 56.8253 119.205 57.8543C115.04 59.0891 112.629 61.9701 111.971 65.8802C111.314 70.4076 113.067 74.1119 117.013 76.3756C127.316 82.7552 140.907 81.5204 146.387 68.1439C150.113 58.6775 146.825 50.4458 139.811 43.4489C131.042 34.8056 120.301 33.365 108.683 35.8345C95.5306 38.7156 85.4471 45.9184 77.3364 55.7964C70.7601 64.2339 66.376 73.7003 62.8687 83.3725C61.3342 87.9 59.5806 92.4274 56.5116 96.3374C51.9083 102.305 47.5241 108.479 38.3174 108.479C36.1253 108.479 34.5909 110.331 34.5909 111.772C34.8101 113.418 36.3445 114.653 38.5366 115.065C38.975 115.27 39.4135 115.27 39.8519 115.27C44.8936 115.27 49.2778 113.624 53.2235 110.743C54.3196 109.714 54.9772 109.92 56.2924 110.537C65.9376 116.917 74.4867 116.711 84.1318 109.92C85.0086 109.302 85.4471 109.302 86.3239 109.92C95.0922 116.505 105.395 116.917 114.602 111.154C115.698 110.331 116.136 110.743 117.013 111.36C125.562 116.711 136.742 116.505 144.852 110.743C146.168 109.92 146.825 109.92 148.14 110.743C157.566 116.917 166.554 116.711 175.541 110.126C176.857 109.302 177.295 109.508 178.172 110.126C187.159 116.917 197.681 116.917 206.669 110.331C207.546 109.508 207.984 109.92 208.861 110.537C212.807 113.624 217.41 115.065 222.671 115.27C224.206 115.27 225.302 114.653 225.959 113.418C226.836 112.183 226.617 110.949 225.74 109.92ZM191.763 126.177C187.159 126.177 183.433 124.325 180.583 120.621C178.61 117.74 175.98 117.946 173.788 120.827C171.157 124.325 167.431 126.177 162.608 126.383C157.566 126.383 153.401 124.325 150.113 120.621C147.702 118.151 145.729 117.946 143.318 120.415L142.879 120.827C136.084 127.412 129.069 128.029 121.178 122.679L119.205 121.444C116.575 119.18 115.259 119.18 112.629 121.444C109.341 124.325 105.833 126.383 101.011 126.383C98.5995 126.177 96.8459 127.618 96.8459 129.676C96.8459 131.734 98.5995 133.174 101.23 133.174C106.053 133.174 110.437 131.528 114.163 128.853C115.479 127.824 116.355 127.824 117.89 128.647C127.316 134.821 136.084 134.615 145.291 128.029C146.387 127.206 147.044 127.412 147.921 128.029C156.47 134.821 167.65 134.821 176.199 128.441C177.076 127.824 177.514 127.618 178.391 128.441C182.337 131.528 186.721 132.968 191.105 133.174C193.297 133.38 194.832 132.763 195.709 131.116C196.585 129.882 196.147 128.647 195.27 127.618C194.393 126.589 193.078 126.383 191.763 126.177Z" fill="#73C2FB"/>
</g>
<g filter="url(#filter1_d_8_81)">
<path d="M188.598 76.8223C187.916 74.9023 187.233 72.9823 186.55 71.0623C185.868 69.1423 185.185 67.233 184.502 65.3343C183.82 63.4143 183.137 61.4943 182.454 59.5743H182.294C182.294 59.5743 182.262 59.905 182.198 60.5663C182.156 61.2063 182.092 62.049 182.006 63.0943C181.921 64.1183 181.825 65.217 181.718 66.3903C181.612 67.5636 181.516 68.6943 181.43 69.7823C181.345 70.849 181.27 71.7556 181.206 72.5023C181.164 73.2276 181.142 73.665 181.142 73.8143C181.142 74.4756 181.473 74.8063 182.134 74.8063C182.305 74.8063 182.561 74.8063 182.902 74.8063C183.265 74.785 183.446 74.7743 183.446 74.7743L183.51 74.9023L183.222 76.3423C183.222 76.3423 183.03 76.3316 182.646 76.3103C182.284 76.289 181.857 76.2676 181.366 76.2463C180.897 76.225 180.481 76.2143 180.118 76.2143C179.798 76.2143 179.478 76.225 179.158 76.2463C178.838 76.2676 178.54 76.2996 178.262 76.3423C177.985 76.385 177.761 76.417 177.59 76.4383C177.441 76.4596 177.366 76.4703 177.366 76.4703L177.526 74.9983C178.209 74.913 178.7 74.6996 178.998 74.3583C179.297 73.9956 179.489 73.3876 179.574 72.5343C179.617 72.1503 179.681 71.5743 179.766 70.8063C179.852 70.017 179.948 69.1316 180.054 68.1503C180.161 67.1476 180.257 66.1343 180.342 65.1103C180.449 64.0863 180.545 63.1156 180.63 62.1983C180.737 61.281 180.812 60.513 180.854 59.8943C180.918 59.2543 180.95 58.8596 180.95 58.7103C180.95 58.3263 180.854 58.017 180.662 57.7823C180.47 57.5476 180.172 57.3663 179.766 57.2383C179.361 57.089 178.838 56.993 178.198 56.9503L178.102 56.7903L178.358 55.6703C178.358 55.6703 178.572 55.681 178.998 55.7023C179.446 55.7236 179.948 55.7556 180.502 55.7983C181.057 55.8196 181.505 55.8303 181.846 55.8303C182.166 55.8303 182.486 55.8196 182.806 55.7983C183.148 55.777 183.436 55.7556 183.67 55.7343C183.905 55.713 184.022 55.7023 184.022 55.7023C184.748 58.0276 185.43 60.161 186.07 62.1023C186.732 64.0436 187.308 65.7183 187.798 67.1263C188.31 68.5343 188.705 69.633 188.982 70.4223C189.281 71.1903 189.43 71.5743 189.43 71.5743H189.59C189.59 71.5743 189.729 71.1903 190.006 70.4223C190.305 69.633 190.71 68.5343 191.222 67.1263C191.734 65.697 192.321 64.0223 192.982 62.1023C193.644 60.1823 194.358 58.0703 195.126 55.7663C195.126 55.745 195.254 55.745 195.51 55.7663C195.788 55.7876 196.086 55.809 196.406 55.8303C196.748 55.8303 197.025 55.8303 197.238 55.8303C197.558 55.8303 197.996 55.8196 198.55 55.7983C199.105 55.7556 199.596 55.7236 200.022 55.7023C200.47 55.6596 200.694 55.6383 200.694 55.6383L200.758 55.7663L200.598 56.9503C199.681 57.057 199.03 57.249 198.646 57.5263C198.262 57.7823 198.07 58.177 198.07 58.7103C198.07 58.9023 198.081 59.329 198.102 59.9903C198.145 60.6516 198.198 61.4623 198.262 62.4223C198.326 63.3823 198.39 64.417 198.454 65.5263C198.54 66.6143 198.614 67.7023 198.678 68.7903C198.764 69.8783 198.838 70.8703 198.902 71.7663C199.052 73.0036 199.222 73.825 199.414 74.2303C199.606 74.6143 199.958 74.8063 200.47 74.8063C200.662 74.8063 200.854 74.7956 201.046 74.7743C201.26 74.753 201.366 74.7423 201.366 74.7423L201.43 74.8703L201.142 76.3103C201.142 76.3103 200.972 76.2996 200.63 76.2783C200.289 76.257 199.873 76.2356 199.382 76.2143C198.913 76.2143 198.486 76.2143 198.102 76.2143C197.761 76.2143 197.398 76.225 197.014 76.2463C196.63 76.2676 196.268 76.2996 195.926 76.3423C195.585 76.385 195.308 76.417 195.094 76.4383C194.881 76.4596 194.774 76.4703 194.774 76.4703L194.902 74.9983C195.564 74.913 196.044 74.7423 196.342 74.4863C196.641 74.2303 196.79 73.8676 196.79 73.3983C196.79 73.2063 196.758 72.7476 196.694 72.0223C196.652 71.2756 196.588 70.3796 196.502 69.3343C196.417 68.289 196.332 67.201 196.246 66.0703C196.161 64.9396 196.076 63.8836 195.99 62.9023C195.905 61.921 195.83 61.121 195.766 60.5023C195.724 59.8836 195.702 59.5743 195.702 59.5743H195.542C195.03 60.9823 194.518 62.401 194.006 63.8303C193.494 65.2383 192.972 66.657 192.438 68.0863C191.926 69.5156 191.414 70.945 190.902 72.3743C190.39 73.7823 189.878 75.1903 189.366 76.5983L188.598 76.8223ZM204.78 76.5983L204.972 75.1263C205.975 74.9343 206.647 74.657 206.988 74.2943C207.351 73.9103 207.532 73.2703 207.532 72.3743L207.564 58.9343C207.564 58.2516 207.479 57.793 207.308 57.5583C207.159 57.3236 206.849 57.2063 206.38 57.2063C206.231 57.2063 206.017 57.217 205.74 57.2383C205.484 57.2383 205.249 57.249 205.036 57.2703L204.972 57.1423L205.196 55.7343C205.751 55.7556 206.401 55.777 207.148 55.7983C207.916 55.8196 208.535 55.8303 209.004 55.8303C209.452 55.8303 210.017 55.809 210.7 55.7663C211.404 55.7023 212.065 55.6276 212.684 55.5423L212.556 56.9823C211.681 57.089 211.084 57.2703 210.764 57.5263C210.465 57.761 210.295 58.1876 210.252 58.8063C210.188 59.9796 210.124 61.2276 210.06 62.5503C210.017 63.873 209.975 65.185 209.932 66.4863C209.889 67.7663 209.857 68.9503 209.836 70.0383C209.815 71.105 209.804 71.969 209.804 72.6303C209.804 73.4836 209.9 74.0596 210.092 74.3583C210.284 74.657 210.657 74.8063 211.212 74.8063C211.511 74.8063 211.82 74.7956 212.14 74.7743C212.46 74.753 212.716 74.7316 212.908 74.7103L212.972 74.8383L212.684 76.3103C212.3 76.289 211.852 76.2676 211.34 76.2463C210.828 76.2463 210.316 76.2356 209.804 76.2143C209.292 76.2143 208.855 76.2143 208.492 76.2143C208.023 76.2143 207.436 76.2463 206.732 76.3103C206.049 76.3956 205.399 76.4916 204.78 76.5983ZM230.935 76.7263C230.401 76.7263 229.825 76.449 229.207 75.8943C228.609 75.3396 228.055 74.6036 227.543 73.6863L224.119 67.4783H221.463L221.367 72.2463C221.367 73.0143 221.409 73.5903 221.495 73.9743C221.601 74.337 221.815 74.5823 222.135 74.7103C222.476 74.817 222.988 74.8703 223.671 74.8703L223.735 74.9983L223.447 76.3423C223.447 76.3423 223.34 76.3316 223.127 76.3103C222.913 76.3103 222.636 76.2996 222.295 76.2783C221.975 76.2783 221.612 76.2676 221.207 76.2463C220.823 76.2463 220.439 76.2463 220.055 76.2463C219.521 76.225 218.967 76.225 218.391 76.2463C217.836 76.2676 217.356 76.289 216.951 76.3103C216.567 76.3316 216.375 76.3423 216.375 76.3423L216.663 74.9023C217.665 74.7956 218.316 74.5823 218.615 74.2623C218.935 73.921 219.095 73.2916 219.095 72.3743L219.127 58.9343C219.127 58.2516 219.041 57.793 218.871 57.5583C218.721 57.3236 218.412 57.2063 217.943 57.2063C217.751 57.2063 217.516 57.217 217.239 57.2383C216.983 57.2596 216.855 57.2703 216.855 57.2703L216.791 57.1423L217.015 55.7343C217.015 55.7343 217.132 55.745 217.367 55.7663C217.623 55.7663 217.943 55.777 218.327 55.7983C218.711 55.7983 219.105 55.809 219.511 55.8303C219.916 55.8303 220.268 55.8303 220.567 55.8303C220.844 55.8303 221.196 55.8303 221.623 55.8303C222.071 55.809 222.508 55.7876 222.935 55.7663C223.383 55.745 223.756 55.7343 224.055 55.7343C224.353 55.713 224.503 55.7023 224.503 55.7023C226.487 55.7023 228.055 56.1503 229.207 57.0463C230.359 57.9423 230.935 59.169 230.935 60.7263C230.935 62.0063 230.519 63.1796 229.687 64.2463C228.876 65.313 227.724 66.1876 226.231 66.8703L229.751 72.4383C230.369 73.441 230.967 74.145 231.543 74.5503C232.14 74.9556 232.865 75.1583 233.719 75.1583L233.847 75.2863L233.655 76.3743L230.935 76.7263ZM224.823 66.0063C224.823 66.0063 224.993 65.9423 225.335 65.8143C225.697 65.665 226.103 65.4196 226.551 65.0783C226.999 64.737 227.393 64.257 227.735 63.6383C228.097 63.0196 228.279 62.241 228.279 61.3023C228.279 59.8943 227.788 58.8383 226.807 58.1343C225.847 57.4303 224.385 57.0783 222.423 57.0783C222.209 57.0783 222.06 57.1316 221.975 57.2383C221.911 57.3236 221.868 57.5156 221.847 57.8143C221.761 59.4996 221.687 60.9503 221.623 62.1663C221.58 63.3823 221.548 64.5556 221.527 65.6863L224.823 66.0063ZM244.737 76.5343L244.641 76.3103L244.769 75.0623C245.516 74.9983 246.092 74.9236 246.497 74.8383C246.902 74.753 247.19 74.6356 247.361 74.4863C247.532 74.3156 247.617 74.1023 247.617 73.8463C247.617 73.633 247.596 73.3983 247.553 73.1423C247.51 72.8863 247.436 72.609 247.329 72.3103L246.273 68.8223C245.889 68.801 245.345 68.7903 244.641 68.7903C243.958 68.7903 243.393 68.7903 242.945 68.7903C242.326 68.7903 241.676 68.8223 240.993 68.8863C240.332 68.9503 239.82 69.0036 239.457 69.0463L238.273 72.3743C238.081 72.9503 237.985 73.3663 237.985 73.6223C237.985 74.0916 238.134 74.433 238.433 74.6463C238.753 74.8383 239.244 74.9343 239.905 74.9343H241.729L241.793 75.0623L241.601 76.4383C241.601 76.4383 241.377 76.417 240.929 76.3743C240.481 76.3316 239.916 76.289 239.233 76.2463C238.55 76.225 237.857 76.2143 237.153 76.2143C236.641 76.2143 236.108 76.2143 235.553 76.2143C235.02 76.2356 234.561 76.257 234.177 76.2783C233.814 76.2996 233.633 76.3103 233.633 76.3103L233.889 74.8063C234.486 74.7423 234.966 74.5396 235.329 74.1983C235.692 73.857 236.044 73.2383 236.385 72.3423L242.625 55.9903L244.641 55.4463H244.897C244.897 55.4463 244.961 55.7023 245.089 56.2143C245.238 56.705 245.43 57.3983 245.665 58.2943C245.921 59.169 246.209 60.1823 246.529 61.3343C246.87 62.465 247.222 63.6703 247.585 64.9503C247.969 66.2303 248.364 67.5316 248.769 68.8543C249.174 70.1556 249.58 71.4036 249.985 72.5983C250.241 73.3876 250.582 73.9423 251.009 74.2623C251.457 74.5823 252.14 74.785 253.057 74.8703L253.121 74.9983L252.897 76.3103C252.897 76.3103 252.684 76.2996 252.257 76.2783C251.852 76.257 251.382 76.2356 250.849 76.2143C250.316 76.2143 249.868 76.2143 249.505 76.2143C248.694 76.2143 247.916 76.2356 247.169 76.2783C246.444 76.3423 245.857 76.3956 245.409 76.4383C244.961 76.5023 244.737 76.5343 244.737 76.5343ZM240.033 67.4783H242.849C243.276 67.4783 243.788 67.457 244.385 67.4143C244.982 67.3716 245.462 67.3396 245.825 67.3183L243.297 58.9343H243.073L240.033 67.4783ZM265.505 76.8223C264.822 74.9023 264.139 72.9823 263.457 71.0623C262.774 69.1423 262.091 67.233 261.409 65.3343C260.726 63.4143 260.043 61.4943 259.361 59.5743H259.201C259.201 59.5743 259.169 59.905 259.105 60.5663C259.062 61.2063 258.998 62.049 258.913 63.0943C258.827 64.1183 258.731 65.217 258.625 66.3903C258.518 67.5636 258.422 68.6943 258.337 69.7823C258.251 70.849 258.177 71.7556 258.113 72.5023C258.07 73.2276 258.049 73.665 258.049 73.8143C258.049 74.4756 258.379 74.8063 259.041 74.8063C259.211 74.8063 259.467 74.8063 259.809 74.8063C260.171 74.785 260.353 74.7743 260.353 74.7743L260.417 74.9023L260.129 76.3423C260.129 76.3423 259.937 76.3316 259.553 76.3103C259.19 76.289 258.763 76.2676 258.273 76.2463C257.803 76.225 257.387 76.2143 257.025 76.2143C256.705 76.2143 256.385 76.225 256.065 76.2463C255.745 76.2676 255.446 76.2996 255.169 76.3423C254.891 76.385 254.667 76.417 254.497 76.4383C254.347 76.4596 254.273 76.4703 254.273 76.4703L254.433 74.9983C255.115 74.913 255.606 74.6996 255.905 74.3583C256.203 73.9956 256.395 73.3876 256.481 72.5343C256.523 72.1503 256.587 71.5743 256.673 70.8063C256.758 70.017 256.854 69.1316 256.961 68.1503C257.067 67.1476 257.163 66.1343 257.249 65.1103C257.355 64.0863 257.451 63.1156 257.537 62.1983C257.643 61.281 257.718 60.513 257.761 59.8943C257.825 59.2543 257.857 58.8596 257.857 58.7103C257.857 58.3263 257.761 58.017 257.569 57.7823C257.377 57.5476 257.078 57.3663 256.673 57.2383C256.267 57.089 255.745 56.993 255.105 56.9503L255.009 56.7903L255.265 55.6703C255.265 55.6703 255.478 55.681 255.905 55.7023C256.353 55.7236 256.854 55.7556 257.409 55.7983C257.963 55.8196 258.411 55.8303 258.753 55.8303C259.073 55.8303 259.393 55.8196 259.713 55.7983C260.054 55.777 260.342 55.7556 260.577 55.7343C260.811 55.713 260.929 55.7023 260.929 55.7023C261.654 58.0276 262.337 60.161 262.977 62.1023C263.638 64.0436 264.214 65.7183 264.705 67.1263C265.217 68.5343 265.611 69.633 265.889 70.4223C266.187 71.1903 266.337 71.5743 266.337 71.5743H266.497C266.497 71.5743 266.635 71.1903 266.913 70.4223C267.211 69.633 267.617 68.5343 268.129 67.1263C268.641 65.697 269.227 64.0223 269.889 62.1023C270.55 60.1823 271.265 58.0703 272.033 55.7663C272.033 55.745 272.161 55.745 272.417 55.7663C272.694 55.7876 272.993 55.809 273.313 55.8303C273.654 55.8303 273.931 55.8303 274.145 55.8303C274.465 55.8303 274.902 55.8196 275.457 55.7983C276.011 55.7556 276.502 55.7236 276.929 55.7023C277.377 55.6596 277.601 55.6383 277.601 55.6383L277.665 55.7663L277.505 56.9503C276.587 57.057 275.937 57.249 275.553 57.5263C275.169 57.7823 274.977 58.177 274.977 58.7103C274.977 58.9023 274.987 59.329 275.009 59.9903C275.051 60.6516 275.105 61.4623 275.169 62.4223C275.233 63.3823 275.297 64.417 275.361 65.5263C275.446 66.6143 275.521 67.7023 275.585 68.7903C275.67 69.8783 275.745 70.8703 275.809 71.7663C275.958 73.0036 276.129 73.825 276.321 74.2303C276.513 74.6143 276.865 74.8063 277.377 74.8063C277.569 74.8063 277.761 74.7956 277.953 74.7743C278.166 74.753 278.273 74.7423 278.273 74.7423L278.337 74.8703L278.049 76.3103C278.049 76.3103 277.878 76.2996 277.537 76.2783C277.195 76.257 276.779 76.2356 276.289 76.2143C275.819 76.2143 275.393 76.2143 275.009 76.2143C274.667 76.2143 274.305 76.225 273.921 76.2463C273.537 76.2676 273.174 76.2996 272.833 76.3423C272.491 76.385 272.214 76.417 272.001 76.4383C271.787 76.4596 271.681 76.4703 271.681 76.4703L271.809 74.9983C272.47 74.913 272.95 74.7423 273.249 74.4863C273.547 74.2303 273.697 73.8676 273.697 73.3983C273.697 73.2063 273.665 72.7476 273.601 72.0223C273.558 71.2756 273.494 70.3796 273.409 69.3343C273.323 68.289 273.238 67.201 273.153 66.0703C273.067 64.9396 272.982 63.8836 272.897 62.9023C272.811 61.921 272.737 61.121 272.673 60.5023C272.63 59.8836 272.609 59.5743 272.609 59.5743H272.449C271.937 60.9823 271.425 62.401 270.913 63.8303C270.401 65.2383 269.878 66.657 269.345 68.0863C268.833 69.5156 268.321 70.945 267.809 72.3743C267.297 73.7823 266.785 75.1903 266.273 76.5983L265.505 76.8223ZM290.518 76.5343L290.422 76.3103L290.55 75.0623C291.297 74.9983 291.873 74.9236 292.278 74.8383C292.684 74.753 292.972 74.6356 293.142 74.4863C293.313 74.3156 293.398 74.1023 293.398 73.8463C293.398 73.633 293.377 73.3983 293.334 73.1423C293.292 72.8863 293.217 72.609 293.11 72.3103L292.054 68.8223C291.67 68.801 291.126 68.7903 290.422 68.7903C289.74 68.7903 289.174 68.7903 288.726 68.7903C288.108 68.7903 287.457 68.8223 286.774 68.8863C286.113 68.9503 285.601 69.0036 285.238 69.0463L284.054 72.3743C283.862 72.9503 283.766 73.3663 283.766 73.6223C283.766 74.0916 283.916 74.433 284.214 74.6463C284.534 74.8383 285.025 74.9343 285.686 74.9343H287.51L287.574 75.0623L287.382 76.4383C287.382 76.4383 287.158 76.417 286.71 76.3743C286.262 76.3316 285.697 76.289 285.014 76.2463C284.332 76.225 283.638 76.2143 282.934 76.2143C282.422 76.2143 281.889 76.2143 281.334 76.2143C280.801 76.2356 280.342 76.257 279.958 76.2783C279.596 76.2996 279.414 76.3103 279.414 76.3103L279.67 74.8063C280.268 74.7423 280.748 74.5396 281.11 74.1983C281.473 73.857 281.825 73.2383 282.166 72.3423L288.406 55.9903L290.422 55.4463H290.678C290.678 55.4463 290.742 55.7023 290.87 56.2143C291.02 56.705 291.212 57.3983 291.446 58.2943C291.702 59.169 291.99 60.1823 292.31 61.3343C292.652 62.465 293.004 63.6703 293.366 64.9503C293.75 66.2303 294.145 67.5316 294.55 68.8543C294.956 70.1556 295.361 71.4036 295.766 72.5983C296.022 73.3876 296.364 73.9423 296.79 74.2623C297.238 74.5823 297.921 74.785 298.838 74.8703L298.902 74.9983L298.678 76.3103C298.678 76.3103 298.465 76.2996 298.038 76.2783C297.633 76.257 297.164 76.2356 296.63 76.2143C296.097 76.2143 295.649 76.2143 295.286 76.2143C294.476 76.2143 293.697 76.2356 292.95 76.2783C292.225 76.3423 291.638 76.3956 291.19 76.4383C290.742 76.5023 290.518 76.5343 290.518 76.5343ZM285.814 67.4783H288.63C289.057 67.4783 289.569 67.457 290.166 67.4143C290.764 67.3716 291.244 67.3396 291.606 67.3183L289.078 58.9343H288.854L285.814 67.4783ZM314.966 76.7263C314.432 76.7263 313.856 76.449 313.238 75.8943C312.64 75.3396 312.086 74.6036 311.574 73.6863L308.15 67.4783H305.494L305.398 72.2463C305.398 73.0143 305.44 73.5903 305.526 73.9743C305.632 74.337 305.846 74.5823 306.166 74.7103C306.507 74.817 307.019 74.8703 307.702 74.8703L307.766 74.9983L307.478 76.3423C307.478 76.3423 307.371 76.3316 307.158 76.3103C306.944 76.3103 306.667 76.2996 306.326 76.2783C306.006 76.2783 305.643 76.2676 305.238 76.2463C304.854 76.2463 304.47 76.2463 304.086 76.2463C303.552 76.225 302.998 76.225 302.422 76.2463C301.867 76.2676 301.387 76.289 300.982 76.3103C300.598 76.3316 300.406 76.3423 300.406 76.3423L300.694 74.9023C301.696 74.7956 302.347 74.5823 302.646 74.2623C302.966 73.921 303.126 73.2916 303.126 72.3743L303.158 58.9343C303.158 58.2516 303.072 57.793 302.902 57.5583C302.752 57.3236 302.443 57.2063 301.974 57.2063C301.782 57.2063 301.547 57.217 301.27 57.2383C301.014 57.2596 300.886 57.2703 300.886 57.2703L300.822 57.1423L301.046 55.7343C301.046 55.7343 301.163 55.745 301.398 55.7663C301.654 55.7663 301.974 55.777 302.358 55.7983C302.742 55.7983 303.136 55.809 303.542 55.8303C303.947 55.8303 304.299 55.8303 304.598 55.8303C304.875 55.8303 305.227 55.8303 305.654 55.8303C306.102 55.809 306.539 55.7876 306.966 55.7663C307.414 55.745 307.787 55.7343 308.086 55.7343C308.384 55.713 308.534 55.7023 308.534 55.7023C310.518 55.7023 312.086 56.1503 313.238 57.0463C314.39 57.9423 314.966 59.169 314.966 60.7263C314.966 62.0063 314.55 63.1796 313.718 64.2463C312.907 65.313 311.755 66.1876 310.262 66.8703L313.782 72.4383C314.4 73.441 314.998 74.145 315.574 74.5503C316.171 74.9556 316.896 75.1583 317.75 75.1583L317.878 75.2863L317.686 76.3743L314.966 76.7263ZM308.854 66.0063C308.854 66.0063 309.024 65.9423 309.366 65.8143C309.728 65.665 310.134 65.4196 310.582 65.0783C311.03 64.737 311.424 64.257 311.766 63.6383C312.128 63.0196 312.31 62.241 312.31 61.3023C312.31 59.8943 311.819 58.8383 310.838 58.1343C309.878 57.4303 308.416 57.0783 306.454 57.0783C306.24 57.0783 306.091 57.1316 306.006 57.2383C305.942 57.3236 305.899 57.5156 305.878 57.8143C305.792 59.4996 305.718 60.9503 305.654 62.1663C305.611 63.3823 305.579 64.5556 305.558 65.6863L308.854 66.0063Z" fill="#763A01"/>
</g>
<g filter="url(#filter2_d_8_81)">
<path d="M263.537 108.862L263.561 111.262H262.613L262.661 108.946L262.649 107.794L260.513 107.782L258.557 107.794L258.545 108.862L258.581 111.262H257.633L257.669 108.946L257.633 103.57H258.593L258.557 106.978L260.597 106.99L262.649 106.978L262.613 103.57H263.585L263.537 108.862ZM268.409 103.498C269.465 103.498 270.273 103.822 270.833 104.47C271.401 105.118 271.685 106.05 271.685 107.266C271.685 108.578 271.385 109.59 270.785 110.302C270.185 111.006 269.329 111.358 268.217 111.358C267.177 111.358 266.373 111.022 265.805 110.35C265.245 109.678 264.965 108.722 264.965 107.482C264.965 106.202 265.261 105.218 265.853 104.53C266.453 103.842 267.305 103.498 268.409 103.498ZM268.349 104.278C266.749 104.278 265.949 105.31 265.949 107.374C265.949 108.47 266.141 109.282 266.525 109.81C266.917 110.338 267.505 110.602 268.289 110.602C269.889 110.602 270.689 109.55 270.689 107.446C270.689 106.374 270.493 105.578 270.101 105.058C269.717 104.538 269.133 104.278 268.349 104.278ZM277.274 103.666L277.202 104.41L275.858 104.338H275.078L275.042 108.862L275.078 111.262H274.106L274.178 108.946L274.118 104.338H273.338L271.97 104.41L271.91 104.314L271.982 103.57H277.202L277.274 103.666ZM283.037 110.518L282.965 111.262H278.645L278.705 108.946L278.645 103.57H282.977L283.025 103.666L282.953 104.41L281.141 104.374L279.617 104.398L279.593 106.918L281.033 106.942L282.305 106.906L282.377 106.99L282.293 107.734L280.949 107.71L279.581 107.722L279.569 108.862L279.605 110.458L281.129 110.47L282.977 110.422L283.037 110.518ZM288.274 110.542L288.19 111.262H284.398L284.458 108.946L284.398 103.57H285.382L285.322 108.862L285.358 110.458H288.202L288.274 110.542Z" fill="#994C01"/>
</g>
<g filter="url(#filter3_d_8_81)">
<line y1="-0.5" x2="156.051" y2="-0.5" transform="matrix(0.999969 -0.00792048 0.0080798 0.999967 168.377 90.1408)" stroke="#763A01"/>
</g>
</g>
<defs>
<filter id="filter0_d_8_81" x="30.5909" y="34.752" width="199.926" height="106.46" filterUnits="userSpaceOnUse" color-interpolation-filters="sRGB">
<feFlood flood-opacity="0" result="BackgroundImageFix"/>
<feColorMatrix in="SourceAlpha" type="matrix" values="0 0 0 0 0 0 0 0 0 0 0 0 0 0 0 0 0 0 127 0" result="hardAlpha"/>
<feOffset dy="4"/>
<feGaussianBlur stdDeviation="2"/>
<feComposite in2="hardAlpha" operator="out"/>
<feColorMatrix type="matrix" values="0 0 0 0 0.45098 0 0 0 0 0.760784 0 0 0 0 0.984314 0 0 0 0.25 0"/>
<feBlend mode="normal" in2="BackgroundImageFix" result="effect1_dropShadow_8_81"/>
<feBlend mode="normal" in="SourceGraphic" in2="effect1_dropShadow_8_81" result="shape"/>
</filter>
<filter id="filter1_d_8_81" x="173.366" y="55.4463" width="148.511" height="29.376" filterUnits="userSpaceOnUse" color-interpolation-filters="sRGB">
<feFlood flood-opacity="0" result="BackgroundImageFix"/>
<feColorMatrix in="SourceAlpha" type="matrix" values="0 0 0 0 0 0 0 0 0 0 0 0 0 0 0 0 0 0 127 0" result="hardAlpha"/>
<feOffset dy="4"/>
<feGaussianBlur stdDeviation="2"/>
<feComposite in2="hardAlpha" operator="out"/>
<feColorMatrix type="matrix" values="0 0 0 0 0.460842 0 0 0 0 0.228383 0 0 0 0 0.00196131 0 0 0 0.25 0"/>
<feBlend mode="normal" in2="BackgroundImageFix" result="effect1_dropShadow_8_81"/>
<feBlend mode="normal" in="SourceGraphic" in2="effect1_dropShadow_8_81" result="shape"/>
</filter>
<filter id="filter2_d_8_81" x="253.633" y="103.498" width="38.6405" height="15.86" filterUnits="userSpaceOnUse" color-interpolation-filters="sRGB">
<feFlood flood-opacity="0" result="BackgroundImageFix"/>
<feColorMatrix in="SourceAlpha" type="matrix" values="0 0 0 0 0 0 0 0 0 0 0 0 0 0 0 0 0 0 127 0" result="hardAlpha"/>
<feOffset dy="4"/>
<feGaussianBlur stdDeviation="2"/>
<feComposite in2="hardAlpha" operator="out"/>
<feColorMatrix type="matrix" values="0 0 0 0 0.6 0 0 0 0 0.298039 0 0 0 0 0.00392157 0 0 0 0.25 0"/>
<feBlend mode="normal" in2="BackgroundImageFix" result="effect1_dropShadow_8_81"/>
<feBlend mode="normal" in="SourceGraphic" in2="effect1_dropShadow_8_81" result="shape"/>
</filter>
<filter id="filter3_d_8_81" x="164.369" y="87.9048" width="164.054" height="10.236" filterUnits="userSpaceOnUse" color-interpolation-filters="sRGB">
<feFlood flood-opacity="0" result="BackgroundImageFix"/>
<feColorMatrix in="SourceAlpha" type="matrix" values="0 0 0 0 0 0 0 0 0 0 0 0 0 0 0 0 0 0 127 0" result="hardAlpha"/>
<feOffset dy="4"/>
<feGaussianBlur stdDeviation="2"/>
<feComposite in2="hardAlpha" operator="out"/>
<feColorMatrix type="matrix" values="0 0 0 0 0.460842 0 0 0 0 0.228383 0 0 0 0 0.00196131 0 0 0 0.25 0"/>
<feBlend mode="normal" in2="BackgroundImageFix" result="effect1_dropShadow_8_81"/>
<feBlend mode="normal" in="SourceGraphic" in2="effect1_dropShadow_8_81" result="shape"/>
</filter>
<clipPath id="clip0_8_81">
<rect width="364" height="168" fill="white"/>
</clipPath>
</defs>
</svg>
